<svg xmlns="http://www.w3.org/2000/svg" viewBox="0 0 72 72" id="control-room">
  <g id="control_room">
    <path d="M54 50h1a1 1 0 0 0 2 0h5a1 1 0 0 0 0-2H57a1 1 0 0 0-2 0H54A1 1 0 0 0 54 50ZM62 54a1 1 0 0 0-2 0H55a1 1 0 0 0 0 2h5a1 1 0 0 0 2 0h1a1 1 0 0 0 0-2ZM17 53H9a1 1 0 0 0 0 2h8A1 1 0 0 0 17 53ZM17 49H10a1 1 0 0 0 0 2h7A1 1 0 0 0 17 49ZM20 51h2a1 1 0 0 0 0-2H20A1 1 0 0 0 20 51Z"></path>
    <path d="M69 22H23a1 1 0 0 0 0 2H68V40H47.82A3 3 0 0 0 46 38.18V31a5 5 0 0 0-5-5H31a5 5 0 0 0-5 5v7.18A3 3 0 0 0 24.18 40H4V24H20a1 1 0 0 0 0-2H3a1 1 0 0 0-1 1V41a1 1 0 0 0 1 1H24a5.8 5.8 0 0 0 .18 2H8.73a3 3 0 0 0-3 2.58L4.13 58H3a1 1 0 0 0-1 1v6a1 1 0 0 0 1 1H18.43L18 68.85A1 1 0 0 0 19 70H53a1 1 0 0 0 1-1.15L53.57 66H69a1 1 0 0 0 1-1V59a1 1 0 0 0-1-1H67.87L66.24 46.57a3 3 0 0 0-3-2.57H47.82A5.82 5.82 0 0 0 48 42H69a1 1 0 0 0 1-1V23A1 1 0 0 0 69 22ZM28 31a3 3 0 0 1 3-3H41a3 3 0 0 1 3 3v7.46A9 9 0 0 0 40.22 44H31.78A9 9 0 0 0 28 38.46ZM7.74 46.87a1 1 0 0 1 1-.87H27a3.57 3.57 0 0 0 2.7 3.46l1.3.32v.93a3.59 3.59 0 0 1-2.39 1.75L24 53.37A5.56 5.56 0 0 0 19.63 58H6.15ZM4 64V60H19.32l-.14 1H6a1 1 0 0 0 0 2H18.88l-.15 1Zm23 4V61a3 3 0 0 1 3-3H42a3 3 0 0 1 3 3v7Zm41-4H53.27l-.15-1H66a1 1 0 0 0 0-2H52.82l-.14-1H68ZM64.26 46.86 65.85 58H52.37c0-1.42-2.72-5.55-4.14-3.64a1 1 0 0 0 .39 1.36 3.6 3.6 0 0 1 1.8 2.7L51.84 68H47V61a5 5 0 0 0-5-5H30a5 5 0 0 0-5 5v7H20.16l1.42-9.61a3.59 3.59 0 0 1 2.85-3.06L29 54.42A5.62 5.62 0 0 0 32.58 52h6.84A5.62 5.62 0 0 0 43 54.42L46 55a1 1 0 0 0 .39-2c-1.79-.44-4.47-.43-5.42-2.36v-.93l1.31-.32A3.57 3.57 0 0 0 45 46H63.27A1 1 0 0 1 64.26 46.86ZM43 46a1.57 1.57 0 0 1-1.18 1.52l-1.3.32A2 2 0 0 0 39 50H33a2 2 0 0 0-1.52-2.16l-1.29-.32A1.57 1.57 0 0 1 29 46a2 2 0 0 0-2-2 1 1 0 0 1-1-1V41a1 1 0 0 1 .79-1 7.08 7.08 0 0 1 3 4.18 2.05 2.05 0 0 0 2 1.78h8.44a2.05 2.05 0 0 0 2-1.78 7.08 7.08 0 0 1 3-4.18A1 1 0 0 1 46 41c-.06.8.21 2.33-.31 2.71A.93.93 0 0 1 45 44 2 2 0 0 0 43 46ZM69 2H38a1 1 0 0 0-1 1V19a1 1 0 0 0 1 1H69a1 1 0 0 0 1-1V3A1 1 0 0 0 69 2ZM68 18H39V4H68ZM3 20H34a1 1 0 0 0 1-1V3a1 1 0 0 0-1-1H3A1 1 0 0 0 2 3V19A1 1 0 0 0 3 20ZM4 4H33V18H4Z"></path>
    <path d="m50.62 36.78 4.62-3.69 3.52.88a1 1 0 0 0 1-.26l5-5a1 1 0 0 0-1.42-1.42l-4.6 4.6L55.24 31a1 1 0 0 0-.86.19l-5 4A1 1 0 0 0 50.62 36.78ZM20 10a1 1 0 0 0-1 1v4a1 1 0 0 0 2 0V11A1 1 0 0 0 20 10ZM16 6a1 1 0 0 0-1 1v8a1 1 0 0 0 2 0V7A1 1 0 0 0 16 6ZM12 10a1 1 0 0 0-1 1v4a1 1 0 0 0 2 0V11A1 1 0 0 0 12 10ZM24 6a1 1 0 0 0-1 1v8a1 1 0 0 0 2 0V7A1 1 0 0 0 24 6ZM23.66 27c-.41-.71-1.41-1.45-5.29.05A6 6 0 0 0 9 32.44C5.79 35.05 5.93 36.29 6.34 37c1.21 1.56 3.19.63 5.3 0A6 6 0 0 0 21 31.56C23.43 29.57 24.3 28.1 23.66 27ZM9.59 34.59a4.35 4.35 0 0 0 .48.8 9.11 9.11 0 0 1-1.65.41A9.28 9.28 0 0 1 9.59 34.59Zm7.41.87a4 4 0 0 1-2.92.42c.7-.24 1.48-.83 1.05-1.65-.74-1.28-2.22.16-3.13.41-3.89-5 4.35-9.83 6.79-3.92-.68.66-2.66 1.22-1.92 2.51.5.78 1.39.39 1.95-.09A3.94 3.94 0 0 1 17 35.46Zm3.41-6a5 5 0 0 0-.47-.81 9.26 9.26 0 0 1 1.64-.41A9.16 9.16 0 0 1 20.41 29.42ZM48.53 13.44c3.39 7.07 13.85 2.56 11-4.79l-.05-.1c-3.39-7.06-13.85-2.55-11 4.8A.41.41 0 0 0 48.53 13.44ZM54 7a4 4 0 0 1 2.62 1H54a1 1 0 0 0 0 2h3.86a4 4 0 0 1-6.48 4H54a1 1 0 0 0 0-2H50.14A4 4 0 0 1 54 7Z"></path>
  </g>
</svg>
